<?xml version="1.0" encoding="UTF-8"?>
<svg version="1.1" xmlns="http://www.w3.org/2000/svg" width="702" height="699">
<path d="M0 0 C231.66 0 463.32 0 702 0 C702 230.67 702 461.34 702 699 C470.34 699 238.68 699 0 699 C0 468.33 0 237.66 0 0 Z " fill="#010101" transform="translate(0,0)"/>
<path d="M0 0 C5.08643801 2.73885123 8.17004027 5.5101208 10 11 C10.860771 26.57664452 9.12899028 41.95300326 5.92578125 57.1953125 C5.09459221 61.25312018 4.71207371 65.1652289 4.5625 69.3125 C4.24669196 75.89062875 3.50181888 82.35764333 2.5625 88.875 C2.44011963 89.73005127 2.31773926 90.58510254 2.19165039 91.46606445 C1.55914916 95.7240282 0.82202858 99.93229078 -0.06640625 104.14453125 C-0.94105195 108.41223501 -1.32069481 112.45986648 -1.5 116.8125 C-1.9434334 125.62065247 -3.14220742 134.19984449 -5.0625 142.8125 C-6.06761626 147.63705805 -6.29375333 152.41547867 -6.53759766 157.32983398 C-6.8701035 163.2253131 -7.59537548 169.03201526 -8.4375 174.875 C-8.62107056 176.1575769 -8.62107056 176.1575769 -8.80834961 177.46606445 C-9.57195189 182.60659325 -10.50593693 187.6934508 -11.54711914 192.78466797 C-13.65679066 203.10443045 -14.53013734 213.45840464 -15.30273438 223.94970703 C-15.37943359 224.9601709 -15.45613281 225.97063477 -15.53515625 227.01171875 C-15.600979 227.92397217 -15.66680176 228.83622559 -15.73461914 229.77612305 C-16 232 -16 232 -17 234 C-17.06996014 235.70702735 -17.08440154 237.41668003 -17.0625 239.125 C-17.05347656 240.03507813 -17.04445313 240.94515625 -17.03515625 241.8828125 C-17.02355469 242.58148438 -17.01195312 243.28015625 -17 244 C-16.68109802 243.515383 -16.36219604 243.03076599 -16.03363037 242.53146362 C-0.81191014 219.40163408 14.42605405 196.28392292 29.81713867 173.26635742 C32.13075585 169.80434152 34.44085821 166.34000156 36.75 162.875 C39.99541351 158.00510214 43.24366385 153.13711359 46.49458313 148.27088928 C59.38851047 128.96910083 72.23834074 109.63953862 85 90.25 C93.55535423 77.25211033 102.12246245 64.26262302 110.75 51.3125 C111.17522949 50.67340698 111.60045898 50.03431396 112.03857422 49.37585449 C113.20670052 47.62078731 114.37643844 45.86680831 115.546875 44.11328125 C116.51898926 42.65595581 116.51898926 42.65595581 117.51074219 41.16918945 C119 39 119 39 120 38 C120.33423861 35.85430749 120.66736743 33.70844207 121 31.5625 C122.59053476 23.74570103 126.05164792 19.18082278 132 14 C135.03156857 12.48421572 137.87966614 12.75028073 141.25 12.6875 C142.55453125 12.65011719 143.8590625 12.61273438 145.203125 12.57421875 C149.80529188 13.09030537 152.72206864 14.72206864 156 18 C158.27106275 38.3278731 150.70367467 60.48540583 146 80 C145.34 80 144.68 80 144 80 C144.061875 81.134375 144.12375 82.26875 144.1875 83.4375 C144.1875 87.4962955 143.25986233 90.63394509 141.8671875 94.4140625 C140.16343876 99.49461054 139.13992796 104.76926674 138 110 C137.34 110 136.68 110 136 110 C136.0825 111.093125 136.165 112.18625 136.25 113.3125 C136.26666128 118.04430455 134.73642921 121.76124145 133.01953125 126.1171875 C131.6853853 129.88960018 131.01598129 133.6462496 130.39453125 137.58984375 C130.03778531 139.76917293 129.56895969 141.86763805 129 144 C128.34 144 127.68 144 127 144 C127.061875 145.7634375 127.061875 145.7634375 127.125 147.5625 C127.13983635 151.72409674 126.31170778 155.06487667 125 159 C124.34 159 123.68 159 123 159 C122.87625 160.134375 122.7525 161.26875 122.625 162.4375 C122.04573391 167.03944726 121.06264656 171.48889397 120 176 C119.47905024 178.27080663 118.95822264 180.54164128 118.4375 182.8125 C117.6527243 186.2159055 116.86061335 189.61492081 116 193 C115.34 193 114.68 193 114 193 C114.061875 194.7634375 114.061875 194.7634375 114.125 196.5625 C114.13983635 200.72409674 113.31170778 204.06487667 112 208 C111.34 208 110.68 208 110 208 C109.87625 209.175625 109.7525 210.35125 109.625 211.5625 C109.13337982 215.52315835 108.10591445 219.16182631 107 223 C106.6738568 224.81009478 106.36243739 226.62287881 106.0625 228.4375 C105.48117845 231.80184123 104.79110666 234.84035707 103.5 238 C101.95157328 241.82507392 101.32559872 245.56567522 100.671875 249.62890625 C100.14185242 252.28826373 99.51596688 254.80326131 98.765625 257.40234375 C93.79459327 273.5998918 93.79459327 273.5998918 96.26953125 289.8671875 C97.78817431 292.10212454 97.78817431 292.10212454 99.91796875 292.734375 C113.07997302 292.82499121 125.25602431 284.51736203 136.16015625 277.91015625 C140.7445746 275.13326998 145.3890241 272.46854499 150.04174805 269.80810547 C162.00412602 262.96659319 173.82735075 255.92704783 185.57348633 248.72241211 C204.44819468 237.1672292 204.44819468 237.1672292 210 238 C211 239 211 239 211.4375 241.125 C210.76140767 245.56789246 208.24966906 248.00000112 205 251 C201.43375942 253.39890162 197.67687924 255.37670927 193.875 257.375 C191.62385083 258.59575093 189.37524514 259.82120124 187.12890625 261.05078125 C186.54741318 261.36826828 185.9659201 261.68575531 185.36680603 262.01286316 C178.7260431 265.66024866 172.26990346 269.60235376 165.8125 273.5625 C164.6291702 274.286461 163.44573945 275.01025701 162.26220703 275.73388672 C161.68100098 276.089245 161.09979492 276.44460327 160.50097656 276.81072998 C159.92444336 277.16322815 159.34791016 277.51572632 158.75390625 277.87890625 C157.89732422 278.40306122 157.89732422 278.40306122 157.0234375 278.93780518 C148.08179274 284.40352945 139.05492422 289.72458673 130 295 C129.26894043 295.42748535 128.53788086 295.8549707 127.78466797 296.29541016 C92.50981167 316.84713331 92.50981167 316.84713331 75 315 C70.22048279 313.37837809 67.81066526 311.16394853 65 307 C63.37972934 302.13918801 63.81544732 297.15252602 63.8125 292.0625 C63.80025391 290.98419922 63.78800781 289.90589844 63.77539062 288.79492188 C63.76365813 282.26774566 64.32409112 276.14299836 65.51196289 269.72680664 C66.04910105 266.725658 66.36427433 263.75210708 66.6315918 260.71777344 C68.25577898 242.49005334 73.28127137 224.7042615 77.4765625 206.94262695 C79.19284761 199.63100774 80.78020367 192.31449131 82.1875 184.9375 C83.81940261 176.40957649 86.11040842 168.29658245 89.03125 160.109375 C90.11429138 156.63316154 90.75641024 153.21282061 91.375 149.625 C93.29906521 138.90109226 95.74377272 128.32423721 99.359375 118.03515625 C100.03591271 115.88591146 100.47002717 113.7786013 100.875 111.5625 C103.1910622 99.17156724 107.20409993 87.00267844 111 75 C110.34 75 109.68 75 109 75 C108.81232056 75.88594849 108.81232056 75.88594849 108.62084961 76.78979492 C107.62706985 80.32761959 105.52712981 83.24361654 103.5625 86.3125 C103.11221436 87.02398193 102.66192871 87.73546387 102.19799805 88.46850586 C98.90105886 93.65318546 95.51883011 98.77817714 92.09277344 103.87817383 C88.28281964 109.55314505 84.54271601 115.27235979 80.8125 121 C80.17481689 121.97912354 79.53713379 122.95824707 78.88012695 123.96704102 C77.57174788 125.97660012 76.26356263 127.98628543 74.95556641 129.99609375 C71.80684866 134.83277579 68.6532425 139.66626717 65.5 144.5 C64.24997516 146.41665047 62.99997519 148.33331715 61.75 150.25 C24.25000001 207.74999999 24.25000001 207.74999999 22.37451172 210.62573242 C21.12611946 212.53994473 19.87774702 214.45416996 18.62939453 216.3684082 C15.4799596 221.19773349 12.33016671 226.02682463 9.1796875 230.85546875 C3.84397212 239.03402814 -1.49141039 247.21275662 -6.80981445 255.40258789 C-8.93400742 258.67320227 -11.06040972 261.94237741 -13.18701172 265.21142578 C-14.87261454 267.80406724 -16.55626828 270.39796761 -18.23974609 272.99198914 C-19.7618386 275.33574166 -21.28644929 277.67784935 -22.81158447 280.0196228 C-23.90607633 281.70170615 -24.997758 283.38561697 -26.08935547 285.06958008 C-39.39493748 305.48144511 -39.39493748 305.48144511 -48 308 C-51.125 308.375 -51.125 308.375 -54 308 C-56.51174268 305.6002834 -56.97900553 304.20969479 -57.328125 300.72265625 C-57.30234375 299.51480469 -57.2765625 298.30695313 -57.25 297.0625 C-57.23453125 295.85722656 -57.2190625 294.65195312 -57.203125 293.41015625 C-57.02808238 290.47146003 -56.57894882 287.87281424 -56 285 C-55.80310558 282.3309867 -55.63310353 279.67193016 -55.5 277 C-55.27970262 272.57773402 -54.8688449 268.34422452 -54 264 C-53.80310558 261.3309867 -53.63310353 258.67193016 -53.5 256 C-53.27970262 251.57773402 -52.8688449 247.34422452 -52 243 C-51.80310558 240.3309867 -51.63310353 237.67193016 -51.5 235 C-51.27970262 230.57773402 -50.8688449 226.34422452 -50 222 C-49.80310558 219.3309867 -49.63310353 216.67193016 -49.5 214 C-49.27970262 209.57773402 -48.8688449 205.34422452 -48 201 C-47.80310558 198.3309867 -47.63310353 195.67193016 -47.5 193 C-47.27975492 188.57878388 -46.87692775 184.3425462 -46 180 C-45.87260712 177.77204 -45.77187851 175.54250336 -45.6875 173.3125 C-45.11079366 161.43726374 -42.92961371 149.71445822 -41 138 C-43.81963203 140.51905669 -45.51514706 143.34321506 -47.40625 146.6015625 C-48.06173828 147.72264404 -48.71722656 148.84372559 -49.39257812 149.9987793 C-49.73619385 150.59040863 -50.07980957 151.18203796 -50.43383789 151.79159546 C-56.52996667 162.27468249 -62.77321655 172.63207599 -69.49072266 182.73095703 C-71.2232909 185.33569487 -72.94523861 187.94733938 -74.66796875 190.55859375 C-105.74384133 237.53624387 -105.74384133 237.53624387 -120.57421875 255.3359375 C-121.14043945 256.01914062 -121.70666016 256.70234375 -122.29003906 257.40625 C-123.35709089 258.68139908 -124.43775903 259.94532589 -125.53417969 261.1953125 C-128.34800309 264.49885493 -128.34800309 264.49885493 -128.94140625 268.6640625 C-128.07228333 270.9629403 -128.07228333 270.9629403 -126.95996094 272.85864258 C-125.22260809 276.73410591 -125.66234522 280.87769206 -125.6875 285.0625 C-125.69487183 286.48550415 -125.69487183 286.48550415 -125.70239258 287.93725586 C-125.81588857 294.71733181 -126.50111241 300.65201942 -129 307 C-129.3403125 307.95648438 -129.680625 308.91296875 -130.03125 309.8984375 C-137.09850755 328.47386443 -150.63154227 343.28329145 -168.6015625 351.68359375 C-176.20327346 354.9919083 -183.71194002 357.22223484 -192 358 C-192.79664063 358.0825 -193.59328125 358.165 -194.4140625 358.25 C-197.70865151 358.44168518 -199.49900159 358.42508956 -202.0625 356.25 C-203.16577711 353.60213494 -202.80156509 352.66814674 -202 350 C-200.31583984 349.74476563 -200.31583984 349.74476563 -198.59765625 349.484375 C-186.85165881 347.65603116 -186.85165881 347.65603116 -176 343 C-174.69869141 342.27683594 -174.69869141 342.27683594 -173.37109375 341.5390625 C-159.25142546 333.17330632 -150.01418159 321.12884189 -144 306 C-143.34 306 -142.68 306 -142 306 C-140.84335263 300.51730931 -140.88583745 295.19660726 -140.9375 289.625 C-140.94426758 288.23474609 -140.94426758 288.23474609 -140.95117188 286.81640625 C-140.96288426 284.54420291 -140.97928628 282.27213612 -141 280 C-145.11673894 283.45642062 -149.02145006 286.88679546 -152.5 291 C-155.36275818 294.36567516 -158.40620818 297.2361494 -161.7734375 300.08984375 C-164.36473537 302.31290456 -166.86558983 304.62248076 -169.375 306.9375 C-196.35352978 331.44668348 -226.82262061 350.43181553 -264.22802734 349.17480469 C-276.15145575 348.42289569 -288.03890973 344.71702563 -296.15625 335.5703125 C-301.50298732 328.36098227 -303.38269955 321.56272837 -303.3125 312.6875 C-303.30686035 311.93839355 -303.3012207 311.18928711 -303.29541016 310.41748047 C-303.16667057 304.52477626 -302.40321897 299.43017415 -300 294 C-299.62101562 293.13375 -299.24203125 292.2675 -298.8515625 291.375 C-294.91439612 283.36411812 -289.23225498 277.24981063 -283 271 C-282.29101562 270.2678125 -281.58203125 269.535625 -280.8515625 268.78125 C-257.99727369 246.71504011 -220.6067486 237.87498934 -189.8125 237.75 C-187.93594727 237.7190625 -187.93594727 237.7190625 -186.02148438 237.6875 C-175.52548313 237.64378943 -166.22361057 239.31932524 -156.5625 243.5 C-155.61503906 243.9021875 -154.66757813 244.304375 -153.69140625 244.71875 C-151 246 -151 246 -148.40234375 247.71875 C-146.16023358 249.13858863 -146.16023358 249.13858863 -144.0078125 249.078125 C-140.8295296 247.37149839 -138.98453568 244.59038069 -136.875 241.75 C-136.39345459 241.11811768 -135.91190918 240.48623535 -135.41577148 239.83520508 C-134.4186652 238.52604357 -133.42544042 237.21391705 -132.43603516 235.89892578 C-131.13433442 234.17763569 -129.814226 232.47384054 -128.48046875 230.77734375 C-108.70713442 205.50964188 -89.37810518 177.75621035 -75 149 C-74.34 149 -73.68 149 -73 149 C-72.88897949 148.28972656 -72.77795898 147.57945312 -72.66357422 146.84765625 C-71.94013196 143.74308285 -70.81876207 141.28134759 -69.3828125 138.4375 C-68.85816406 137.39335937 -68.33351563 136.34921875 -67.79296875 135.2734375 C-67.24253906 134.19320312 -66.69210937 133.11296875 -66.125 132 C-65.58230469 130.91976562 -65.03960937 129.83953125 -64.48046875 128.7265625 C-60.46150633 120.76724818 -60.46150633 120.76724818 -58.3840332 117.31347656 C-56.90713854 114.8447777 -55.98908208 112.47009503 -55.0625 109.75 C-53.9119198 106.38293414 -52.625626 103.16131695 -51.12890625 99.9375 C-48.54687875 94.20179166 -46.7339603 88.25097831 -44.875 82.25 C-44.18652421 80.04636559 -43.49647764 77.84322118 -42.8046875 75.640625 C-42.50546387 74.67672852 -42.20624023 73.71283203 -41.89794922 72.71972656 C-41.30490102 70.92349031 -40.65509699 69.14490296 -39.94750977 67.390625 C-39.11231127 65.2833682 -38.51978718 63.31723243 -38.03515625 61.109375 C-37.87644043 60.40425781 -37.71772461 59.69914062 -37.55419922 58.97265625 C-37.39193848 58.23917969 -37.22967773 57.50570312 -37.0625 56.75 C-35.84234064 51.38175453 -34.51751057 46.16954544 -32.6484375 40.984375 C-31.9214601 38.75964898 -31.45741689 36.54458309 -31 34.25 C-30.24264365 30.63221513 -29.04576285 28.10955954 -27 25 C-26.566875 23.9275 -26.13375 22.855 -25.6875 21.75 C-22.27274376 13.63555346 -16.73888406 6.63250011 -10 1 C-6.38069302 -0.20643566 -3.80768995 -0.32268559 0 0 Z " fill="#F9F9F9" transform="translate(393,147)"/>
<path d="M0 0 C0.99 1.485 0.99 1.485 2 3 C1.28714844 3.7734375 0.57429687 4.546875 -0.16015625 5.34375 C-1.12765456 6.39578699 -2.09509957 7.447873 -3.0625 8.5 C-3.52849609 9.0053125 -3.99449219 9.510625 -4.47460938 10.03125 C-7.09969313 12.88848402 -9.67233655 15.77812928 -12.19921875 18.72265625 C-16.37715585 23.5116775 -20.8301905 28.01626312 -25.32324219 32.50854492 C-26.73919947 33.92668284 -28.14698289 35.35296665 -29.5546875 36.77929688 C-35.72396616 42.961464 -42.15586279 48.5804863 -49 54 C-50.20480728 54.98753449 -51.40819167 55.97681071 -52.609375 56.96875 C-68.50446368 69.86979095 -84.76413959 80.67527343 -106 79 C-114.8863307 77.2408282 -122.34029436 74.32348137 -128.37109375 67.43359375 C-132.65486669 60.8078273 -131.85575155 51.56881347 -131 44 C-129.33856731 36.43015873 -125.06397233 30.71836239 -120 25 C-119.34128906 24.2471875 -118.68257812 23.494375 -118.00390625 22.71875 C-91.88438333 -5.2698764 -34.25255847 -17.22852568 0 0 Z " fill="#020202" transform="translate(237,407)"/>
<path d="M0 0 C0.66 0 1.32 0 2 0 C1.71682074 1.60568666 1.42312209 3.20952047 1.125 4.8125 C0.96257812 5.70582031 0.80015625 6.59914062 0.6328125 7.51953125 C0 10 0 10 -2 13 C-4 10 -4 10 -3.8125 8.1875 C-2.75488765 5.34008213 -1.40604378 2.68982288 0 0 Z " fill="#5A5A5A" transform="translate(502,222)"/>
<path d="M0 0 C0.66 0 1.32 0 2 0 C2.08159574 4.16138263 1.98248524 7.9472484 1 12 C0.67 12 0.34 12 0 12 C-0.144375 10.88625 -0.28875 9.7725 -0.4375 8.625 C-0.78372035 5.17857953 -0.78372035 5.17857953 -2 3 C-1.34 2.01 -0.68 1.02 0 0 Z " fill="#747474" transform="translate(350,285)"/>
</svg>
